<?xml version="1.0" standalone="no"?>
<!DOCTYPE svg PUBLIC "-//W3C//DTD SVG 20010904//EN"
 "http://www.w3.org/TR/2001/REC-SVG-20010904/DTD/svg10.dtd">
<svg version="1.0" xmlns="http://www.w3.org/2000/svg"
 width="215.000000pt" height="151.000000pt" viewBox="0 0 215.000000 151.000000"
 preserveAspectRatio="xMidYMid meet">

<g transform="translate(0.000000,151.000000) scale(0.100000,-0.100000)"
fill="#000000" stroke="none">
<path d="M904 1299 c4 -46 8 -85 10 -87 2 -2 27 4 55 14 92 30 197 5 241 -56
21 -29 62 -41 74 -21 3 5 9 54 12 108 l7 100 -74 6 c-41 4 -132 10 -203 13
l-129 7 7 -84z"/>
<path d="M795 1339 c-33 -16 -106 -50 -162 -75 l-103 -47 0 -40 c0 -34 -2 -38
-15 -27 -8 7 -15 8 -15 3 0 -5 -13 -8 -28 -5 -27 4 -62 -17 -62 -38 0 -5 18
-23 40 -40 37 -30 40 -35 40 -83 l0 -52 -120 -1 c-127 -1 -144 -7 -153 -49 -3
-21 0 -25 21 -25 24 0 24 -2 20 -60 -5 -68 -8 -74 -46 -75 -25 0 -27 -3 -30
-48 -2 -34 1 -49 11 -53 20 -7 290 15 299 24 5 5 11 43 14 85 4 42 10 77 14
77 4 0 12 -48 18 -107 l12 -107 -101 -98 -101 -97 22 -28 c22 -29 329 -193
361 -193 15 0 70 54 152 151 46 54 54 84 63 225 l7 111 -67 28 c-65 28 -67 29
-60 59 8 39 34 84 52 91 7 3 21 -2 30 -11 43 -43 165 -59 234 -30 34 15 108
87 108 106 0 5 19 18 42 29 l43 19 -30 4 c-27 3 -30 7 -33 43 -4 44 -22 74
-22 35 0 -13 -3 -20 -7 -17 -3 4 -12 -1 -18 -10 -11 -14 -10 -19 2 -28 11 -8
12 -16 4 -35 -5 -14 -10 -21 -10 -16 -1 5 -11 0 -23 -11 -13 -11 -38 -23 -57
-27 -31 -6 -33 -5 -27 19 6 22 3 25 -22 25 -15 0 -33 -5 -40 -12 -8 -8 -15 -8
-27 2 -19 15 -34 5 -17 -12 25 -25 14 -37 -24 -26 -20 5 -45 8 -54 5 -11 -3
-27 5 -39 19 -12 13 -27 24 -35 24 -8 0 -19 14 -25 30 -10 29 -12 30 -70 30
-32 0 -66 -3 -75 -6 -9 -3 -31 -31 -50 -63 -40 -65 -72 -96 -102 -98 -19 -1
-22 5 -27 65 -6 83 4 117 32 102 16 -8 40 0 126 45 59 30 111 52 116 49 5 -3
9 -1 9 5 0 6 14 18 30 26 17 9 30 21 29 28 -1 7 1 23 5 37 4 14 6 59 4 101
l-3 77 -60 -29z m-255 -249 c0 -11 -2 -20 -4 -20 -2 0 -6 9 -9 20 -3 11 -1 20
4 20 5 0 9 -9 9 -20z m260 -116 c16 -10 36 -37 48 -66 l21 -49 -25 -37 c-14
-20 -28 -49 -31 -64 -6 -33 -12 -34 -55 -10 -18 10 -66 31 -105 46 -40 15 -75
32 -78 36 -3 5 3 15 13 22 11 7 35 38 55 70 20 31 42 58 49 61 27 11 81 6 108
-9z m-523 -196 c-3 -8 -6 -5 -6 6 -1 11 2 17 5 13 3 -3 4 -12 1 -19z m382 -35
c3 -2 -10 0 -27 3 -21 4 -32 3 -32 -5 0 -6 6 -11 13 -11 6 0 4 -5 -5 -11 -10
-5 -18 -18 -18 -27 0 -15 -2 -15 -10 -2 -5 8 -10 34 -10 57 l0 43 43 -22 c23
-12 44 -23 46 -25z m-43 -162 c21 -10 95 -44 164 -76 122 -56 156 -75 133 -75
-14 0 -334 148 -347 161 -16 15 7 10 50 -10z m-33 -241 c48 -24 87 -48 87 -52
0 -5 -12 -13 -27 -19 -24 -9 -39 -5 -103 27 -41 21 -76 38 -78 39 -6 5 19 56
26 53 4 -2 46 -23 95 -48z"/>
<path d="M1330 1271 c0 -44 5 -92 10 -107 8 -20 8 -29 -2 -35 -9 -6 -8 -10 5
-15 9 -3 17 -12 17 -18 0 -21 55 -66 80 -66 13 0 47 -18 76 -40 l52 -39 -11
-43 c-6 -24 -11 -62 -11 -85 0 -24 -5 -43 -10 -43 -6 0 -5 -5 2 -12 7 -7 12
-36 12 -64 0 -87 9 -99 82 -113 129 -25 154 -30 195 -35 l42 -6 11 41 c13 49
10 74 -10 75 -42 3 -42 3 -35 57 10 82 13 89 35 77 30 -16 37 -12 36 22 -1 33
-1 33 -81 50 -44 9 -104 18 -134 20 l-54 3 -13 -55 c-7 -30 -18 -80 -24 -110
-10 -54 -25 -89 -33 -80 -2 3 8 59 24 125 34 145 33 135 9 135 -24 0 -27 36
-6 65 13 18 14 18 26 -2 13 -20 14 -20 83 12 88 41 98 56 55 86 -18 13 -36 28
-40 34 -5 6 -8 5 -8 -4 0 -10 -8 -12 -29 -8 -31 6 -81 47 -81 66 0 6 -4 11
-10 11 -5 0 -10 7 -10 15 0 8 -7 15 -15 15 -8 0 -15 5 -15 10 0 6 -6 10 -13
10 -7 0 -51 26 -97 58 -47 32 -91 61 -97 66 -10 5 -13 -11 -13 -73z m100 -215
c7 -9 8 -16 3 -16 -14 0 -53 30 -53 41 0 12 32 -4 50 -25z m390 -341 c0 -8 -4
-15 -10 -15 -5 0 -7 7 -4 15 4 8 8 15 10 15 2 0 4 -7 4 -15z"/>
<path d="M1274 1098 c-19 -23 -19 -23 1 -7 11 9 27 19 35 22 13 5 13 6 -1 6
-9 1 -24 -9 -35 -21z"/>
<path d="M1380 942 c22 -11 43 -33 58 -62 13 -25 30 -52 38 -61 18 -20 18 -29
-2 -29 -8 0 -72 -16 -141 -35 -69 -20 -127 -34 -128 -33 -1 2 -7 17 -13 33
l-11 30 5 -36 6 -36 -73 -19 -72 -19 6 -110 c8 -151 21 -193 101 -332 26 -46
47 -73 58 -73 10 0 107 29 215 65 245 80 244 79 176 176 -96 138 -97 142 -94
248 1 51 6 103 10 115 6 16 1 28 -22 51 -17 16 -38 48 -49 71 -19 43 -55 74
-85 74 -11 -1 -5 -8 17 -18z m105 -391 c-10 -9 -369 -121 -389 -121 -29 0 19
22 99 44 50 14 131 39 180 55 97 31 125 37 110 22z m40 -240 c4 -24 -17 -36
-124 -65 -58 -16 -65 -16 -79 -2 -10 10 -13 19 -7 25 11 10 198 71 203 67 1
-2 4 -13 7 -25z"/>
</g>
</svg>
