<?xml version="1.0" standalone="no"?>
<!DOCTYPE svg PUBLIC "-//W3C//DTD SVG 20010904//EN"
 "http://www.w3.org/TR/2001/REC-SVG-20010904/DTD/svg10.dtd">
<svg version="1.0" xmlns="http://www.w3.org/2000/svg"
 width="220.000000pt" height="160.000000pt" viewBox="0 0 220.000000 160.000000"
 preserveAspectRatio="xMidYMid meet">
<metadata>
Created by potrace 1.10, written by Peter Selinger 2001-2011
</metadata>
<g transform="translate(0.000000,160.000000) scale(0.100000,-0.100000)"
fill="#000000" stroke="none">
<path d="M615 1531 c-255 -70 -445 -247 -532 -496 -26 -74 -28 -91 -28 -235 0
-144 2 -161 28 -235 42 -119 99 -209 191 -300 93 -92 177 -144 291 -182 73
-25 94 -27 230 -27 136 0 157 2 229 26 74 25 82 26 114 12 108 -45 302 -58
429 -28 265 61 487 276 560 544 24 90 24 290 -1 380 -40 146 -138 300 -250
391 -77 63 -219 132 -313 153 -130 29 -308 17 -424 -29 -33 -13 -42 -12 -115
12 -109 36 -305 42 -409 14z m280 -226 c39 -8 101 -30 138 -49 l69 -35 36 24
c92 60 237 85 351 61 114 -24 193 -66 270 -143 105 -105 151 -216 151 -363 0
-147 -46 -258 -149 -361 -143 -143 -337 -190 -526 -128 -33 11 -77 31 -97 45
l-38 24 -52 -29 c-204 -113 -450 -79 -614 84 -263 263 -170 708 175 845 100
39 184 46 286 25z"/>
<path d="M592 1057 c-38 -101 -46 -143 -46 -252 -1 -121 9 -162 56 -238 54
-86 143 -130 257 -129 88 0 141 23 196 84 25 28 45 46 45 41 0 -17 66 -79 103
-97 82 -39 192 -38 274 1 57 27 119 96 143 161 44 114 35 296 -21 431 l-22 51
-128 0 -128 0 14 -40 c42 -118 58 -320 31 -385 -30 -70 -95 -71 -126 -2 -16
34 -20 66 -20 165 l0 122 -124 0 -124 0 -4 -137 c-3 -114 -6 -143 -22 -166
-38 -56 -103 -41 -126 29 -18 54 -6 220 23 327 l24 87 -128 0 -128 0 -19 -53z"/>
</g>
</svg>
